<svg xmlns="http://www.w3.org/2000/svg" width="18" height="17"><path fill="#fff" d="M2.53 16.776c-1.395 0-2.53-1.102-2.53-2.458V2.459C0 1.101 1.135 0 2.53 0h12.213c1.395 0 2.53 1.102 2.53 2.457v11.861c0 1.356-1.135 2.458-2.53 2.458h-4.555v-5.963h2.608l.337-1.966h-2.945V6.88c0-.542.454-.983 1.012-.983h2.024V3.932h-2.53c-1.395 0-2.53 1.102-2.53 2.457v2.458H6.14v1.966h2.024v5.963zm-1.518-2.457c0 .812.681 1.474 1.518 1.474h4.622v-3.997H5.128V7.864h2.024V6.389c0-1.897 1.589-3.44 3.542-3.44h3.542V6.88H11.2v.983h3.128l-.675 3.932H11.2v3.997h3.542c.838 0 1.519-.661 1.519-1.474V2.457c0-.813-.681-1.474-1.519-1.474H2.53c-.837 0-1.518.661-1.518 1.474z"/></svg>