<svg xmlns="http://www.w3.org/2000/svg" width="18" height="17"><path fill="#fff" d="M2.53 16.776c-1.395 0-2.53-1.102-2.53-2.458V2.459C0 1.101 1.135 0 2.53 0h12.213c1.395 0 2.53 1.102 2.53 2.457v11.861c0 1.356-1.135 2.458-2.53 2.458zm-1.518-2.457c0 .812.681 1.474 1.518 1.474h12.213c.837 0 1.518-.661 1.518-1.474V2.457c0-.813-.681-1.474-1.518-1.474H2.53c-.837 0-1.518.661-1.518 1.474z"/><path fill="#fff" d="M4.08 8.383c0-2.439 2.043-4.423 4.554-4.423 2.512 0 4.555 1.984 4.555 4.423 0 2.44-2.043 4.424-4.555 4.424-2.51 0-4.554-1.985-4.554-4.424zm1.012 0c0 1.897 1.59 3.44 3.542 3.44 1.954 0 3.543-1.543 3.543-3.44s-1.59-3.44-3.543-3.44-3.542 1.543-3.542 3.44zm6.818-5.126c0-.803.673-1.457 1.5-1.457s1.5.654 1.5 1.457-.673 1.457-1.5 1.457-1.5-.654-1.5-1.457zm1 0c0 .268.224.485.5.485s.5-.217.5-.485a.494.494 0 00-.5-.486c-.276 0-.5.218-.5.486z"/></svg>