<svg width="12" height="12" fill="none" xmlns="http://www.w3.org/2000/svg"><path d="M9.637 7.26a.38.38 0 00-.11.336l.497 2.894a.855.855 0 01-.342.841.857.857 0 01-.906.066l-2.6-1.366a.38.38 0 00-.353 0l-2.598 1.366a.853.853 0 01-.907-.066.855.855 0 01-.342-.841l.496-2.894a.38.38 0 00-.11-.336L.26 5.21a.855.855 0 01-.217-.882.855.855 0 01.694-.585l2.906-.423a.38.38 0 00.286-.208L5.23.48A.855.855 0 016 0c.33 0 .626.184.772.48L8.07 3.112a.38.38 0 00.286.208l2.905.423a.855.855 0 01.695.585.855.855 0 01-.217.882L9.637 7.26zm-.583.418a.86.86 0 01.248-.762l2.102-2.05a.373.373 0 00.096-.39.373.373 0 00-.307-.258l-2.905-.422a.859.859 0 01-.648-.47L6.34.691A.373.373 0 006 .481a.373.373 0 00-.341.211l-1.3 2.633a.86.86 0 01-.647.47l-2.906.423a.373.373 0 00-.306.259.372.372 0 00.096.39l2.102 2.049a.86.86 0 01.248.762L2.45 10.57a.373.373 0 00.15.372c.12.087.27.097.401.029L5.6 9.606a.862.862 0 01.802 0L9 10.972c.131.068.28.058.4-.03a.373.373 0 00.152-.37l-.498-2.894z" fill="#9D2929"/><g clip-path="url(#clip0)"><path d="M11.74 5.21a.855.855 0 00.217-.882.854.854 0 00-.695-.586L8.357 3.32a.38.38 0 01-.286-.208L6.77.48A.855.855 0 006 0a.855.855 0 00-.772.48l-1.3 2.632a.38.38 0 01-.286.208l-2.905.422a.855.855 0 00-.695.586.855.855 0 00.217.882l2.103 2.05a.38.38 0 01.11.336l-.497 2.893a.843.843 0 00.188.698.87.87 0 001.06.21l2.6-1.367a.39.39 0 01.353 0l2.599 1.367a.863.863 0 001.248-.907l-.496-2.894a.38.38 0 01.11-.336l2.103-2.05z" fill="#9D2929"/></g><defs><clipPath id="clip0"><path fill="#fff" d="M0 0h12v12H0z"/></clipPath></defs></svg>