<svg xmlns="http://www.w3.org/2000/svg" width="18" height="14"><path fill="#fff" d="M15.625 4.013c-.214.278-.321.64-.301 1.019.132 2.503-.503 4.908-2.436 6.6-2.295 2.007-5.705 2.383-8.733 1.922-1.363-.208-2.741-.9-3.132-1.107L0 11.904l1.108-.354c1.211-.387 1.948-.627 2.86-1.003a3.73 3.73 0 01-1.956-2.2l-.258-.761.212.031a3.764 3.764 0 01-.482-.576C1.048 6.397.817 5.61.866 4.937l.049-.664.408.154a3.643 3.643 0 01-.37-1.008A3.742 3.742 0 011.374.835L1.73.2l.477.556c1.506 1.758 3.415 2.8 5.68 3.106-.209-1.395.416-2.588 1.58-3.283 1.42-.848 3.408-.797 4.746.37.509-.128 2.518-.845 2.518-.845l-.644 1.784c.123-.01.1-.006 1.186-.054-.003.003-1.22 1.623-1.648 2.18zm-.426-1.086h-.558l.437-1.21c-.21.072-.424.138-.685.201a.924.924 0 01-.83-.216c-1.064-.95-2.6-.864-3.567-.286-.463.276-1.49 1.093-1.021 2.701.02.073.023.074.103.834-.365-.083-4 .152-7.095-2.966-.291 1.085.106 2.214 1.098 2.965l1.376 1.043-1.737-.167a4.813 4.813 0 01-.761-.118c.07.252.189.526.37.793.275.406.795.936 1.707 1.153l1.877.447-1.861.503a3.596 3.596 0 01-.743.12C3.787 9.44 4.566 9.88 5.5 9.938l1.951.121-1.767.813c-1.267.582-2.05.885-3.066 1.224.501.2 1.107.4 1.692.488 3.236.493 6.115-.12 7.9-1.681 1.529-1.337 2.236-3.295 2.103-5.82a2.495 2.495 0 01.502-1.657l.383-.498z"/></svg>